<?xml version="1.0" standalone="no"?>
<!DOCTYPE svg PUBLIC "-//W3C//DTD SVG 20010904//EN"
 "http://www.w3.org/TR/2001/REC-SVG-20010904/DTD/svg10.dtd">
<svg version="1.0" xmlns="http://www.w3.org/2000/svg"
 width="512.000000pt" height="512.000000pt" viewBox="0 0 512.000000 512.000000"
 preserveAspectRatio="xMidYMid meet">
<metadata>
Created by potrace 1.11, written by Peter Selinger 2001-2013
</metadata>
<g transform="translate(0.000000,512.000000) scale(0.100000,-0.100000)"
fill="#000000" stroke="none">
<path d="M964 4333 c4 -38 17 -180 31 -318 13 -137 27 -299 31 -360 l7 -110
-477 3 -476 3 0 -935 0 -936 240 0 240 0 0 320 0 320 178 0 c158 0 259 8 345
26 15 3 33 17 40 31 12 22 15 8 31 -139 9 -89 23 -246 31 -348 8 -102 21 -248
29 -325 8 -77 20 -209 26 -294 6 -85 13 -158 15 -162 3 -4 35 -14 72 -24 38
-9 95 -26 128 -36 33 -10 92 -27 130 -37 98 -26 405 -113 555 -157 69 -20 157
-45 195 -55 39 -10 112 -30 163 -44 l93 -26 107 31 c59 17 130 37 157 44 28 7
113 32 190 55 77 23 163 48 190 55 28 7 106 30 175 50 69 20 154 45 190 55 36
10 117 33 180 52 l115 33 12 115 c7 63 17 180 23 260 13 181 29 355 36 398 l5
32 227 0 227 0 53 -153 c29 -83 56 -158 61 -165 6 -9 65 -12 262 -10 l255 3
-38 105 c-22 58 -45 121 -53 140 -14 36 -146 384 -196 520 -85 230 -121 327
-129 345 -5 11 -24 58 -41 105 -17 47 -44 119 -59 160 -15 42 -39 105 -53 140
-14 36 -46 121 -72 189 -25 68 -49 130 -53 138 -6 10 -20 -15 -45 -79 -21 -51
-75 -189 -122 -306 l-84 -213 94 -266 c52 -145 95 -271 95 -279 0 -21 -288
-21 -296 1 -3 8 2 85 11 172 9 87 23 244 31 348 7 105 18 233 24 285 6 52 19
201 30 330 18 219 44 516 73 843 l12 137 -1613 0 -1614 0 6 -67z m2931 -240
c-3 -21 -9 -96 -15 -168 -5 -71 -15 -183 -21 -247 l-12 -118 -147 0 -148 0
-22 -52 c-12 -29 -35 -83 -51 -120 -16 -38 -42 -98 -58 -135 -16 -38 -52 -124
-81 -193 -28 -69 -60 -143 -70 -165 -10 -22 -37 -85 -60 -140 -23 -55 -50
-118 -60 -140 -43 -95 -88 -202 -95 -224 -9 -30 -19 -18 -35 44 -7 28 -23 82
-35 120 -12 39 -34 108 -48 155 -35 114 -68 224 -105 345 -17 55 -45 147 -62
205 -18 58 -43 143 -57 190 -14 47 -27 91 -29 98 -2 7 -21 12 -49 12 l-45 0 0
285 0 285 655 0 655 0 -5 -37z m-2995 -930 c109 -50 158 -166 125 -294 -36
-144 -124 -189 -367 -189 l-98 0 0 256 0 256 148 -4 c122 -3 155 -7 192 -25z
m2876 -385 c-3 -35 -10 -112 -16 -173 -35 -402 -85 -940 -100 -1082 -6 -50
-10 -113 -10 -140 0 -26 -4 -54 -9 -61 -8 -13 -199 -70 -551 -167 -74 -20
-162 -45 -195 -55 -100 -31 -297 -82 -301 -77 -2 2 -3 298 -2 658 l3 654 24
-75 c13 -41 37 -118 53 -170 16 -52 40 -126 52 -165 13 -38 36 -112 52 -162
l29 -93 251 0 251 0 18 43 c9 23 26 62 36 87 37 89 181 448 245 610 36 91 71
179 79 195 26 54 85 209 85 222 0 7 3 13 6 13 3 0 3 -28 0 -62z"/>
</g>
</svg>
